# xmcd
#
# Track frame offsets:
#	150
#	14326
#	26402
#	37692
#	48577
#	62142
#	73196
#	85831
#	99302
#	111904
#	126495
#	137796
#	150546
#	161864
#
# Disc length: 2352
#
# Revision: 2
# Processed by: cddbd v1.5.1PL0 Copyright (c) Steve Scherf et al.
# Submitted via: audiograbber 1.82.02
# Normalized: r1:DSETVAR1
#
DISCID=bb092e0e
DTITLE=Various Artist - Country Radio Requests CD 1
DYEAR=1900
DGENRE=Country
TTITLE0=Tex Morton - The Black Sheep
TTITLE1=Slim Dusty - Rusty It's Goodbye
TTITLE2=Smokey Dawson - The Old Cockatoorali
TTITLE3=June Holms - Happy Yodelling Cowgirl
TTITLE4=Johnny Bardield - Old Fiddler Joe
TTITLE5=Billy Blinkhorn - Poor Ned Kelly
TTITLE6=Billy Starlight - The Red Morning Sun
TTITLE7=Buddy Williams - Stockman In Uniform
TTITLE8=Shirley Thomas - The Faithful Old Dog
TTITLE9=Gordon Parsons - The Passing Of Cobber Jack
TTITLE10=Reg Lindsay - When The Wagon Was New
TTITLE11=Dusty Rankin - Out Of The Queensland Ranges
TTITLE12=McKean Sisters - Gymkhana
TTITLE13=Bradley Kincaid - The Blind Girl
EXTD=
EXTT0=
EXTT1=
EXTT2=
EXTT3=
EXTT4=
EXTT5=
EXTT6=
EXTT7=
EXTT8=
EXTT9=
EXTT10=
EXTT11=
EXTT12=
EXTT13=
PLAYORDER=
